<svg width="38" height="42" viewBox="0 0 38 42" fill="none" xmlns="http://www.w3.org/2000/svg">
<path d="M6.33337 28C6.33337 29.54 6.95087 30.9225 7.91671 31.885V35C7.91671 35.9625 8.62921 36.75 9.50004 36.75H11.0834C11.9542 36.75 12.6667 35.9625 12.6667 35V33.25H25.3334V35C25.3334 35.9625 26.0459 36.75 26.9167 36.75H28.5C29.3709 36.75 30.0834 35.9625 30.0834 35V31.885C31.0492 30.9225 31.6667 29.54 31.6667 28V10.5C31.6667 4.375 25.9984 3.5 19 3.5C12.0017 3.5 6.33337 4.375 6.33337 10.5V28ZM11.875 29.75C10.5609 29.75 9.50004 28.5775 9.50004 27.125C9.50004 25.6725 10.5609 24.5 11.875 24.5C13.1892 24.5 14.25 25.6725 14.25 27.125C14.25 28.5775 13.1892 29.75 11.875 29.75ZM26.125 29.75C24.8109 29.75 23.75 28.5775 23.75 27.125C23.75 25.6725 24.8109 24.5 26.125 24.5C27.4392 24.5 28.5 25.6725 28.5 27.125C28.5 28.5775 27.4392 29.75 26.125 29.75ZM28.5 19.25H9.50004V10.5H28.5V19.25Z" fill="#F7F8F8"/>
</svg>
