<svg width="39" height="53" viewBox="0 0 39 53" fill="none" xmlns="http://www.w3.org/2000/svg">
<path d="M0.5 39C0.5 41.42 1.42625 43.5925 2.875 45.105V50C2.875 51.5125 3.94375 52.75 5.25 52.75H7.625C8.93125 52.75 10 51.5125 10 50V47.25H29V50C29 51.5125 30.0688 52.75 31.375 52.75H33.75C35.0563 52.75 36.125 51.5125 36.125 50V45.105C37.5737 43.5925 38.5 41.42 38.5 39V11.5C38.5 1.875 29.9975 0.5 19.5 0.5C9.0025 0.5 0.5 1.875 0.5 11.5V39ZM8.8125 41.75C6.84125 41.75 5.25 39.9075 5.25 37.625C5.25 35.3425 6.84125 33.5 8.8125 33.5C10.7837 33.5 12.375 35.3425 12.375 37.625C12.375 39.9075 10.7837 41.75 8.8125 41.75ZM30.1875 41.75C28.2162 41.75 26.625 39.9075 26.625 37.625C26.625 35.3425 28.2162 33.5 30.1875 33.5C32.1588 33.5 33.75 35.3425 33.75 37.625C33.75 39.9075 32.1588 41.75 30.1875 41.75ZM33.75 25.25H5.25V11.5H33.75V25.25Z" fill="#865E5D"/>
</svg>
