<svg width="38" height="42" viewBox="0 0 38 42" fill="none" xmlns="http://www.w3.org/2000/svg">
<path d="M17.1316 21.8575C17.1633 21.5775 17.195 21.2975 17.195 21C17.195 20.7025 17.1633 20.4225 17.1316 20.1425L18.8416 18.7075C19 18.585 19.0316 18.34 18.9366 18.1475L17.3058 15.12C17.2108 14.9275 16.9891 14.8575 16.815 14.9275L14.7883 15.8025C14.3608 15.4525 13.9016 15.1725 13.4108 14.945L13.0941 12.6175C13.0941 12.4075 12.92 12.25 12.7141 12.25H9.46832C9.26248 12.25 9.08832 12.4075 9.05665 12.6175L8.73998 14.9275C8.24915 15.1375 7.78998 15.4525 7.36248 15.785L5.33581 14.91C5.14581 14.8225 4.93998 14.91 4.84498 15.1025L3.21415 18.13C3.11915 18.34 3.16665 18.5675 3.32498 18.7075L5.03498 20.1425C5.00332 20.4225 4.98748 20.72 4.98748 21C4.98748 21.2975 5.01915 21.5775 5.05082 21.8575L3.32498 23.31C3.16665 23.4325 3.13498 23.6775 3.22998 23.87L4.86082 26.8975C4.95582 27.09 5.17748 27.16 5.35165 27.09L7.37831 26.215C7.80581 26.565 8.26498 26.845 8.75582 27.0725L9.07248 29.3825C9.08832 29.5925 9.26248 29.75 9.46832 29.75H12.73C12.9358 29.75 13.11 29.5925 13.1258 29.3825L13.4425 27.0725C13.9333 26.8625 14.3925 26.5475 14.82 26.215L16.8466 27.09C17.0366 27.1775 17.2425 27.09 17.3375 26.8975L18.9683 23.87C19.0633 23.6775 19.0316 23.45 18.8733 23.31L17.1316 21.8575ZM11.0833 24.0625C9.51582 24.0625 8.23331 22.6975 8.23331 21C8.23331 19.3025 9.51582 17.9375 11.0833 17.9375C12.6508 17.9375 13.9333 19.3025 13.9333 21C13.9333 22.6975 12.6666 24.0625 11.0833 24.0625ZM28.5 1.7675L12.6666 1.75C10.925 1.75 9.49998 3.325 9.49998 5.25V10.5H12.6666V8.75H28.5V33.25H12.6666V31.5H9.49998V36.75C9.49998 38.675 10.925 40.25 12.6666 40.25H28.5C30.2416 40.25 31.6666 38.675 31.6666 36.75V5.25C31.6666 3.325 30.2416 1.7675 28.5 1.7675Z" fill="#F7F8F8"/>
</svg>
