<svg width="86" height="100" viewBox="0 0 86 100" fill="none" xmlns="http://www.w3.org/2000/svg">
<path d="M43 0C19.3925 0 0.25 20.15 0.25 45C0.25 65.85 13.74 83.35 32.0275 88.45L43 100L53.9725 88.45C72.26 83.35 85.75 65.85 85.75 45C85.75 20.15 66.6075 0 43 0ZM43 10C50.885 10 57.25 16.7 57.25 25C57.25 33.3 50.885 40 43 40C35.115 40 28.75 33.3 28.75 25C28.75 16.7 35.115 10 43 10ZM43 81.5C31.125 81.5 20.6275 75.1 14.5 65.4C14.6425 55.45 33.5 50 43 50C52.4525 50 71.3575 55.45 71.5 65.4C65.3725 75.1 54.875 81.5 43 81.5Z" fill="#F1F3F5"/>
</svg>
